<svg width="103" height="104" viewBox="0 0 103 104" fill="none" xmlns="http://www.w3.org/2000/svg">
<g clip-path="url(#clip0_1_2)">
<path d="M18.7197 0.5H83.9717C94.0342 0.5 102.192 8.65722 102.192 18.7197V84.46C102.192 94.5226 94.0343 102.68 83.9717 102.68H18.7197C8.65722 102.68 0.5 94.5225 0.5 84.46V18.7197C0.500147 8.65731 8.65731 0.500147 18.7197 0.5Z" stroke="black"/>
<path d="M18.7197 4H83.9717C92.1012 4 98.6913 10.5902 98.6914 18.7197V84.46C98.6912 92.5894 92.1012 99.1797 83.9717 99.1797H18.7197C10.5903 99.1795 4.00019 92.5893 4 84.46V18.7197C4.00015 10.5903 10.5903 4.00015 18.7197 4Z" stroke="black"/>
<path d="M67.3278 38.614C67.3278 38.614 66.6836 37.5374 65.6587 36.182C64.6547 34.8079 63.452 33.6408 62.0506 32.6808C60.6492 31.702 59.0491 30.9584 57.2503 30.4502C55.4724 29.9419 53.5167 29.6878 51.3832 29.6878C47.7646 29.6878 44.5016 30.5255 41.5942 32.2008C38.6868 33.8761 36.386 36.3326 34.6917 39.5703C33.0184 42.7892 32.1818 46.7328 32.1818 51.4011C32.1818 56.0883 33.0289 60.0507 34.7231 63.2884C36.4174 66.5261 38.7391 68.9826 41.6883 70.6579C44.6376 72.3332 47.9947 73.1709 51.7597 73.1709C55.2527 73.1709 58.2961 72.5309 60.8897 71.2509C63.5043 69.9708 66.4116 67.5597 66.4116 67.5597C66.4116 67.5597 66.4116 63.3602 66.4116 60.179C66.4116 56.9978 66.4116 57.9518 66.4116 57.9518H53.2343V49.1716H76.7123V60.179C76.7123 65.0356 76.7123 69.0272 76.7123 69.0272C76.7123 69.0272 69.6015 76.2862 65.5646 78.2251C61.5486 80.1639 56.947 81.1334 51.7597 81.1334C45.9449 81.1334 40.8412 79.9286 36.4487 77.5192C32.0772 75.1097 28.6678 71.6932 26.2205 67.2696C23.7733 62.8272 22.5497 57.5565 22.5497 51.4576C22.5497 46.8458 23.2608 42.7045 24.6832 39.0339C26.1055 35.3632 28.103 32.2479 30.6758 29.6878C33.2694 27.109 36.3128 25.1419 39.8058 23.7866C43.3198 22.4124 47.158 21.7253 51.3204 21.7253C54.7926 21.7253 58.0242 22.1865 61.0152 23.1089C64.0272 24.0313 66.7045 25.3395 69.0472 27.0337C71.4108 28.7278 73.3795 31.1453 73.3795 31.1453L73.9994 31.9424L67.3278 38.614Z" fill="black"/>
<path d="M13.9529 17.8665V22.348C13.9529 23.3434 15.1542 23.8442 15.8612 23.1436L22.5479 16.5176C23.2585 15.8135 22.7599 14.6021 21.7596 14.6021H17.2788C16.9873 14.6021 16.7072 14.7157 16.4982 14.919L14.2922 17.0634C14.0753 17.2743 13.9529 17.564 13.9529 17.8665Z" fill="black"/>
<path d="M88.4811 17.8665V22.348C88.4811 23.3434 87.2798 23.8442 86.5727 23.1436L79.886 16.5176C79.1755 15.8135 79.6741 14.6021 80.6744 14.6021H85.1551C85.4467 14.6021 85.7268 14.7157 85.9358 14.919L88.1418 17.0634C88.3587 17.2743 88.4811 17.564 88.4811 17.8665Z" fill="black"/>
<path d="M17.2173 88.1302H21.6988C22.6942 88.1302 23.195 86.9289 22.4944 86.2219L15.8684 79.5352C15.1644 78.8247 13.9529 79.3233 13.9529 80.3235V84.8043C13.9529 85.0959 14.0666 85.3759 14.2698 85.585L16.4143 87.7909C16.6251 88.0079 16.9148 88.1302 17.2173 88.1302Z" fill="black"/>
<path d="M85.2166 88.1302H80.7351C79.7398 88.1302 79.239 86.9289 79.9396 86.2219L86.5655 79.5352C87.2696 78.8247 88.4811 79.3233 88.4811 80.3235V84.8043C88.4811 85.0959 88.3674 85.3759 88.1642 85.585L86.0197 87.7909C85.8088 88.0079 85.5192 88.1302 85.2166 88.1302Z" fill="black"/>
</g>
<defs>
<clipPath id="clip0_1_2">
<rect width="103" height="104" fill="white"/>
</clipPath>
</defs>
</svg>
